<?xml version="1.0" encoding="UTF-8" standalone="no"?>
<svg
   xmlns:dc="http://purl.org/dc/elements/1.1/"
   xmlns:cc="http://creativecommons.org/ns#"
   xmlns:rdf="http://www.w3.org/1999/02/22-rdf-syntax-ns#"
   xmlns:svg="http://www.w3.org/2000/svg"
   xmlns="http://www.w3.org/2000/svg"
   xmlns:sodipodi="http://sodipodi.sourceforge.net/DTD/sodipodi-0.dtd"
   xmlns:inkscape="http://www.inkscape.org/namespaces/inkscape"
   width="512"
   height="512"
   viewBox="0 0 135.46666 135.46666"
   version="1.1"
   id="svg8"
   inkscape:version="1.0.2 (e86c870879, 2021-01-15, custom)"
   sodipodi:docname="favicon.svg">
  <defs
     id="defs2">
    <filter
       style="color-interpolation-filters:sRGB;"
       inkscape:label="Drop Shadow"
       id="filter1026">
      <feFlood
         flood-opacity="0.498039"
         flood-color="rgb(0,0,0)"
         result="flood"
         id="feFlood1016" />
      <feComposite
         in="flood"
         in2="SourceGraphic"
         operator="in"
         result="composite1"
         id="feComposite1018" />
      <feGaussianBlur
         in="composite1"
         stdDeviation="2.77556e-17"
         result="blur"
         id="feGaussianBlur1020" />
      <feOffset
         dx="2.5"
         dy="2.5"
         result="offset"
         id="feOffset1022" />
      <feComposite
         in="SourceGraphic"
         in2="offset"
         operator="over"
         result="composite2"
         id="feComposite1024" />
    </filter>
  </defs>
  <sodipodi:namedview
     id="base"
     pagecolor="#2c2c2c"
     bordercolor="#666666"
     borderopacity="1.0"
     inkscape:pageopacity="0"
     inkscape:pageshadow="2"
     inkscape:zoom="0.98994949"
     inkscape:cx="296.07911"
     inkscape:cy="247.90868"
     inkscape:document-units="px"
     inkscape:current-layer="layer1"
     inkscape:document-rotation="0"
     showgrid="false"
     units="px"
     inkscape:window-width="1366"
     inkscape:window-height="705"
     inkscape:window-x="-8"
     inkscape:window-y="-8"
     inkscape:window-maximized="1" />
  <metadata
     id="metadata5">
    <rdf:RDF>
      <cc:Work
         rdf:about="">
        <dc:format>image/svg+xml</dc:format>
        <dc:type
           rdf:resource="http://purl.org/dc/dcmitype/StillImage" />
        <dc:title />
      </cc:Work>
    </rdf:RDF>
  </metadata>
  <g
     inkscape:label="Capa 1"
     inkscape:groupmode="layer"
     id="layer1">
    <rect
       style="fill:#77b3d4;stroke:none;stroke-width:1.87773;stroke-linecap:round;stroke-dasharray:1.87773, 7.51095000000000024;fill-opacity:1"
       id="rect23"
       width="135.46666"
       height="135.46666"
       x="0"
       y="0" />
    <path
       style="fill:#ffffff;stroke-width:0.0212239;fill-opacity:1;filter:url(#filter1026)"
       d="m 97.471934,103.08207 c -0.07324,-0.0166 -0.206959,-0.0652 -0.297138,-0.10788 -0.163722,-0.0776 -0.172129,-0.0858 -6.127875,-6.039234 l -5.963928,-5.9616 -17.700768,-0.0067 c -13.401033,-0.0051 -17.747168,-0.01283 -17.891783,-0.03171 -0.696377,-0.09091 -1.040165,-0.15736 -1.511254,-0.292111 -1.123143,-0.321267 -2.15461,-0.871926 -3.073118,-1.640613 -0.258013,-0.215928 -0.811262,-0.7718 -1.027502,-1.032374 -1.137563,-1.370793 -1.793629,-3.020112 -1.91222,-4.807224 -0.03492,-0.526158 -0.01758,-32.131111 0.01778,-32.40896 0.05169,-0.406216 0.135372,-0.867569 0.215582,-1.188541 0.690776,-2.764251 2.778545,-5.000346 5.498705,-5.889359 0.514197,-0.168052 1.055836,-0.284467 1.704879,-0.366432 0.257184,-0.03248 2.205579,-0.03568 25.831792,-0.0424 17.448021,-0.005 25.684904,-2.98e-4 25.967494,0.01472 0.49038,0.02606 0.80583,0.06473 1.25221,0.153502 1.04218,0.207247 2.03775,0.619995 2.93952,1.218676 0.94415,0.626822 1.71262,1.393106 2.33923,2.332581 0.722,1.082498 1.15459,2.246983 1.33639,3.597459 0.037,0.27482 0.0386,0.950123 0.0386,16.533451 0,15.593553 -0.002,16.258451 -0.0387,16.533451 -0.0213,0.157588 -0.0623,0.410684 -0.0913,0.562435 -0.64238,3.366414 -3.32025,6.011026 -6.70418,6.62091 -0.57966,0.104473 -0.83491,0.120913 -2.06379,0.132926 l -1.15116,0.01125 -0.0056,5.542125 -0.0056,5.542132 -0.04717,0.13795 c -0.138975,0.40626 -0.458918,0.72506 -0.854827,0.8518 -0.178249,0.057 -0.49317,0.071 -0.674396,0.0298 z M 34.479076,75.62766 c -0.431775,-0.113125 -0.752899,-0.412689 -0.9134,-0.852073 l -0.05687,-0.155669 -0.0056,-3.79378 -0.0056,-3.793779 h -0.537849 c -0.295783,0 -0.660947,-0.0097 -0.811474,-0.0216 -1.503227,-0.118584 -2.883053,-0.753002 -3.945908,-1.81425 -0.522441,-0.521653 -0.896111,-1.039684 -1.209463,-1.676721 -0.312996,-0.636313 -0.45564,-1.088932 -0.598642,-1.899543 -0.03292,-0.186629 -0.03613,-1.06205 -0.04314,-11.768676 -0.0054,-8.244818 -8.82e-4,-11.634103 0.01557,-11.800512 0.164824,-1.662976 0.95716,-3.166831 2.227331,-4.227477 0.932256,-0.778474 1.944382,-1.227071 3.208842,-1.422231 0.228679,-0.03529 1.217373,-0.03765 18.610831,-0.04434 13.624059,-0.0052 18.446081,-8.02e-4 18.666458,0.01715 0.815051,0.06641 1.523603,0.25998 2.249738,0.614615 0.603131,0.294562 1.125418,0.659093 1.601558,1.117809 1.02695,0.989369 1.663926,2.219084 1.878268,3.626105 0.05489,0.360326 0.07755,1.116175 0.07092,2.366469 l -0.0063,1.199152 -12.660082,0.0121 c -9.546995,0.0091 -12.712271,0.01827 -12.872321,0.0372 -0.67427,0.07978 -1.097004,0.152509 -1.560762,0.268527 -2.924776,0.731696 -5.390035,2.722956 -6.72733,5.433862 -0.60355,1.223487 -0.944202,2.486205 -1.039226,3.852146 -0.01392,0.200106 -0.02148,3.7709 -0.02162,10.208952 l -2.12e-4,9.901207 -2.223208,2.220472 c -2.156017,2.153367 -2.228019,2.222803 -2.382388,2.29753 -0.288908,0.13986 -0.61311,0.174612 -0.908054,0.09734 z"
       id="path21" />
    <circle
       style="fill:#3c5a6a;stroke-width:0.200889;stroke-linecap:round;stroke-dasharray:0.200889, 0.80356200000000000;fill-opacity:1"
       id="path15"
       cx="61.936687"
       cy="66.496384"
       r="4.0889535" />
    <circle
       style="fill:#3c5a6a;stroke-width:0.200889;stroke-linecap:round;stroke-dasharray:0.200889, 0.80356200000000000;fill-opacity:1"
       id="path15-5"
       cx="74.636688"
       cy="66.496384"
       r="4.0889535" />
    <circle
       style="fill:#3c5a6a;stroke-width:0.200889;stroke-linecap:round;stroke-dasharray:0.200889, 0.80356200000000000;fill-opacity:1"
       id="path15-5-5"
       cx="87.336685"
       cy="66.496384"
       r="4.0889535" />
  </g>
</svg>
