<?xml version="1.0" encoding="UTF-8" standalone="no"?>
<svg
   xmlns:dc="http://purl.org/dc/elements/1.1/"
   xmlns:cc="http://creativecommons.org/ns#"
   xmlns:rdf="http://www.w3.org/1999/02/22-rdf-syntax-ns#"
   xmlns:svg="http://www.w3.org/2000/svg"
   xmlns="http://www.w3.org/2000/svg"
   xmlns:sodipodi="http://sodipodi.sourceforge.net/DTD/sodipodi-0.dtd"
   xmlns:inkscape="http://www.inkscape.org/namespaces/inkscape"
   width="256"
   height="256"
   viewBox="0 0 67.733331 67.733331"
   version="1.1"
   id="svg8"
   inkscape:version="1.0.2 (e86c870879, 2021-01-15, custom)"
   sodipodi:docname="file.svg">
  <defs
     id="defs2" />
  <sodipodi:namedview
     id="base"
     pagecolor="#2c2c2c"
     bordercolor="#666666"
     borderopacity="1.0"
     inkscape:pageopacity="0"
     inkscape:pageshadow="2"
     inkscape:zoom="0.98994949"
     inkscape:cx="92.084587"
     inkscape:cy="139.43531"
     inkscape:document-units="px"
     inkscape:current-layer="layer1"
     inkscape:document-rotation="0"
     showgrid="false"
     units="px"
     inkscape:window-width="1366"
     inkscape:window-height="705"
     inkscape:window-x="-8"
     inkscape:window-y="-8"
     inkscape:window-maximized="1" />
  <metadata
     id="metadata5">
    <rdf:RDF>
      <cc:Work
         rdf:about="">
        <dc:format>image/svg+xml</dc:format>
        <dc:type
           rdf:resource="http://purl.org/dc/dcmitype/StillImage" />
        <dc:title></dc:title>
      </cc:Work>
    </rdf:RDF>
  </metadata>
  <g
     inkscape:label="Capa 1"
     inkscape:groupmode="layer"
     id="layer1">
    <path
       style="fill:#ffffff;stroke-width:0.0453989"
       d="m 25.308964,56.059518 c -2.262719,-0.211768 -4.536306,-1.01737 -6.401257,-2.268163 -0.821217,-0.550778 -1.306051,-0.955601 -2.113749,-1.76493 -1.117244,-1.1195 -1.855527,-2.128814 -2.526958,-3.454629 -2.463105,-4.863685 -1.857099,-10.64968 1.561963,-14.913231 0.275611,-0.343685 2.386003,-2.47744 6.778761,-6.853805 12.201808,-12.156274 12.888805,-12.834362 13.352699,-13.179524 1.367238,-1.0173 2.850701,-1.638676 4.542597,-1.902753 0.695448,-0.108548 2.133625,-0.108649 2.823586,-2.05e-4 1.669228,0.262373 3.241286,0.926778 4.567485,1.930376 0.423398,0.320406 1.35638,1.240191 1.693334,1.669382 0.936067,1.192305 1.625926,2.672379 1.912677,4.103607 0.582274,2.906234 -0.128663,5.891014 -1.938411,8.138196 -0.290224,0.360376 -18.217179,18.367298 -18.918348,19.002738 -1.235242,1.119451 -2.536077,1.641488 -4.091311,1.641881 -2.554937,6.85e-4 -4.795959,-1.599554 -5.597376,-3.996803 -0.216165,-0.646613 -0.299123,-1.167497 -0.298906,-1.876818 5.3e-4,-1.565558 0.480932,-2.815292 1.544431,-4.017315 0.168558,-0.190515 4.103568,-4.127236 8.744468,-8.748273 9.227665,-9.188171 8.608302,-8.606599 9.24784,-8.683591 0.645855,-0.07775 1.145308,0.08358 1.620359,0.523389 0.618449,0.572573 0.790366,1.424958 0.451623,2.2392 -0.09415,0.226308 -0.897007,1.043708 -8.739414,8.897708 -9.428511,9.442445 -8.80491,8.782107 -8.925138,9.45092 -0.188299,1.04747 0.545847,2.069359 1.631755,2.271304 0.368235,0.06847 0.758677,0.0059 1.177688,-0.188876 0.291949,-0.135688 0.727995,-0.564574 9.662332,-9.503692 5.384505,-5.387387 9.456522,-9.496503 9.591994,-9.679385 0.301775,-0.407378 0.69849,-1.19335 0.84314,-1.670428 0.335365,-1.106082 0.335469,-2.505187 3.43e-4,-3.573343 -0.295735,-0.942384 -0.715488,-1.617946 -1.467045,-2.361101 -1.210966,-1.197419 -2.482876,-1.72392 -4.165869,-1.724436 -1.492794,-4.67e-4 -2.785524,0.486899 -3.853509,1.452764 -0.666048,0.602363 -18.757606,18.655297 -19.070053,19.029341 -1.164752,1.394379 -1.960891,3.260382 -2.175833,5.09976 -0.640486,5.480943 3.274428,10.372522 8.777028,10.96666 0.634676,0.06853 1.943919,0.03275 2.548547,-0.06965 1.743649,-0.295287 3.299294,-0.99092 4.654029,-2.081132 0.124847,-0.10047 4.466125,-4.416376 9.647283,-9.590904 10.370142,-10.356869 9.592999,-9.621761 10.300123,-9.743019 1.267337,-0.217325 2.455595,0.972137 2.238116,2.240381 -0.11939,0.696228 0.626345,-0.09062 -9.74292,10.280118 -6.130573,6.131449 -9.619071,9.587927 -9.938577,9.847358 -1.941319,1.576304 -4.274945,2.601237 -6.771528,2.974068 -0.735677,0.109863 -2.435623,0.15632 -3.17793,0.08685 z"
       id="path844" />
  </g>
</svg>
