<?xml version="1.0" encoding="UTF-8" standalone="no"?>
<svg
   xmlns:dc="http://purl.org/dc/elements/1.1/"
   xmlns:cc="http://creativecommons.org/ns#"
   xmlns:rdf="http://www.w3.org/1999/02/22-rdf-syntax-ns#"
   xmlns:svg="http://www.w3.org/2000/svg"
   xmlns="http://www.w3.org/2000/svg"
   xmlns:sodipodi="http://sodipodi.sourceforge.net/DTD/sodipodi-0.dtd"
   xmlns:inkscape="http://www.inkscape.org/namespaces/inkscape"
   width="256"
   height="256"
   viewBox="0 0 67.733331 67.733331"
   version="1.1"
   id="svg8"
   inkscape:version="1.0.2 (e86c870879, 2021-01-15, custom)"
   sodipodi:docname="send.svg">
  <defs
     id="defs2" />
  <sodipodi:namedview
     id="base"
     pagecolor="#2c2c2c"
     bordercolor="#666666"
     borderopacity="1.0"
     inkscape:pageopacity="0"
     inkscape:pageshadow="2"
     inkscape:zoom="0.98994949"
     inkscape:cx="198.74474"
     inkscape:cy="181.59919"
     inkscape:document-units="px"
     inkscape:current-layer="layer1"
     inkscape:document-rotation="0"
     showgrid="false"
     units="px"
     inkscape:window-width="1366"
     inkscape:window-height="705"
     inkscape:window-x="-8"
     inkscape:window-y="-8"
     inkscape:window-maximized="1" />
  <metadata
     id="metadata5">
    <rdf:RDF>
      <cc:Work
         rdf:about="">
        <dc:format>image/svg+xml</dc:format>
        <dc:type
           rdf:resource="http://purl.org/dc/dcmitype/StillImage" />
        <dc:title></dc:title>
      </cc:Work>
    </rdf:RDF>
  </metadata>
  <g
     inkscape:label="Capa 1"
     inkscape:groupmode="layer"
     id="layer1">
    <path
       style="fill:#ffffff;stroke-width:0.0982164"
       d="m 11.015903,53.896474 c 0.05489,-0.05489 1.629235,-3.006933 3.498548,-6.560091 5.375031,-10.216773 5.582589,-10.604274 5.7066,-10.654516 0.0646,-0.02619 3.227023,-0.624402 7.027536,-1.329381 3.800519,-0.70498 6.910039,-1.300145 6.910039,-1.322592 -1.4e-5,-0.02246 -2.202948,-0.456589 -4.895432,-0.964758 -2.692484,-0.508172 -5.833992,-1.101333 -6.981119,-1.318138 -1.147133,-0.216805 -2.101759,-0.418514 -2.121396,-0.448244 -0.0579,-0.08767 -5.873292,-11.490294 -7.916742,-15.522906 l -1.032665,-2.037896 5.260257,2.324538 c 2.893141,1.278496 7.686809,3.398254 10.652593,4.710572 2.965785,1.312317 7.689368,3.401764 10.496832,4.64321 8.971814,3.967285 9.646288,4.265656 14.300395,6.326187 2.51519,1.113559 4.607797,2.010758 4.650243,1.993779 0.04248,-0.01698 0.121448,0.01341 0.175563,0.06752 0.106281,0.106287 -0.112992,0.389487 -0.252568,0.326183 -0.04661,-0.02113 -2.170073,0.876459 -4.718821,1.994653 -2.548755,1.118194 -6.13366,2.689932 -7.966455,3.492754 -1.832796,0.802823 -4.982915,2.184299 -7.000262,3.069947 -2.017354,0.88565 -4.168203,1.828788 -4.779666,2.095861 -0.611464,0.267077 -5.586458,2.448885 -11.055534,4.848461 -5.469077,2.39958 -9.96942,4.363271 -10.00076,4.363765 -0.03134,3.71e-4 -0.01209,-0.044 0.04281,-0.0989 z"
       id="path844" />
  </g>
</svg>
